<?xml version="1.0" encoding="utf-8"?>
<svg viewBox="0 0 550 488.5" width="550px" height="488.5px" xmlns="http://www.w3.org/2000/svg">
  <path d="M597.24805,467.75H431.5a16.51868,16.51868,0,0,1-16.5-16.5v-86a16.51868,16.51868,0,0,1,16.5-16.5H597.24805a16.51868,16.51868,0,0,1,16.5,16.5v86A16.51868,16.51868,0,0,1,597.24805,467.75Z" transform="matrix(1, 0, 0, 1, -325, -205.75)" fill="#f2f2f2"/>
  <path d="M815.5,467.75H649.752a16.51868,16.51868,0,0,1-16.5-16.5v-86a16.51868,16.51868,0,0,1,16.5-16.5H815.5a16.51868,16.51868,0,0,1,16.5,16.5v86A16.51868,16.51868,0,0,1,815.5,467.75Z" transform="matrix(1, 0, 0, 1, -325, -205.75)" fill="#f2f2f2"/>
  <path d="M613.74805,610.75H415V501.25a16.51868,16.51868,0,0,1,16.5-16.5H597.24805a16.51868,16.51868,0,0,1,16.5,16.5Z" transform="matrix(1, 0, 0, 1, -325, -205.75)" fill="#f2f2f2"/>
  <path d="M832,610.75H633.252V501.25a16.51868,16.51868,0,0,1,16.5-16.5H815.5a16.51868,16.51868,0,0,1,16.5,16.5Z" transform="matrix(1, 0, 0, 1, -325, -205.75)" fill="#f2f2f2"/>
  <path d="M815.5,331.75H649.752a16.51868,16.51868,0,0,1-16.5-16.5v-93a16.51868,16.51868,0,0,1,16.5-16.5H815.5a16.51868,16.51868,0,0,1,16.5,16.5v93A16.51868,16.51868,0,0,1,815.5,331.75Z" transform="matrix(1, 0, 0, 1, -325, -205.75)" fill="#f2f2f2"/>
  <path d="M597.24805,331.75H431.5a16.51868,16.51868,0,0,1-16.5-16.5v-93a16.51868,16.51868,0,0,1,16.5-16.5H597.24805a16.51868,16.51868,0,0,1,16.5,16.5v93A16.51868,16.51868,0,0,1,597.24805,331.75Z" transform="matrix(1, 0, 0, 1, -325, -205.75)" fill="#f2f2f2"/>
  <path d="M826.5,615.75h-402a9.5,9.5,0,0,1,0-19h402a9.5,9.5,0,0,1,0,19Z" transform="matrix(1, 0, 0, 1, -325, -205.75)" fill="#ccc"/>
  <path d="M608,605.75H444v-38a82,82,0,0,1,164,0Z" transform="matrix(1, 0, 0, 1, -325, -205.75)" fill="#ccc"/>
  <path d="M804,605.75H640v-38a82,82,0,0,1,164,0Z" transform="matrix(1, 0, 0, 1, -325, -205.75)" fill="#ccc"/>
  <rect x="714.5" y="609.25" width="13" height="84" transform="matrix(-1, 0, 0, -1, 1117, 1096.75)" fill="#ccc"/>
  <path d="M677.5,692.79331c0,1.40463,19.69947.5433,44,.5433s44,.86133,44-.5433S745.80053,680.25,721.5,680.25,677.5,691.38868,677.5,692.79331Z" transform="matrix(1, 0, 0, 1, -325, -205.75)" fill="#ccc"/>
  <rect x="518.5" y="609.25" width="13" height="84" transform="matrix(-1, 0, 0, -1, 725, 1096.75)" fill="#ccc"/>
  <path d="M481.5,692.79331c0,1.40463,19.69947.5433,44,.5433s44,.86133,44-.5433S549.80053,680.25,525.5,680.25,481.5,691.38868,481.5,692.79331Z" transform="matrix(1, 0, 0, 1, -325, -205.75)" fill="#ccc"/>
  <polygon points="258.428 476.049 270.688 476.049 276.52 428.761 258.426 428.761 258.428 476.049" fill="#a0616a"/>
  <path d="M580.80118,678.29551H619.3319a0,0,0,0,1,0,0v14.88687a0,0,0,0,1,0,0H595.68806a14.88688,14.88688,0,0,1-14.88688-14.88688v0A0,0,0,0,1,580.80118,678.29551Z" transform="matrix(-1, 0.000046, -0.000046, -1, 875.164368, 1165.700562)" fill="#2f2e41"/>
  <polygon points="277.566 469.207 289.263 465.536 280.671 418.671 263.407 424.088 277.566 469.207" fill="#a0616a"/>
  <path d="M600.35517,666.29114h38.53072a0,0,0,0,1,0,0V681.178a0,0,0,0,1,0,0H615.242a14.88686,14.88686,0,0,1-14.88686-14.88686v0A0,0,0,0,1,600.35517,666.29114Z" transform="matrix(-0.954122, 0.299418, -0.299418, -0.954122, 1087.542114, 925.284424)" fill="#2f2e41"/>
  <path d="M594.36386,653.19171l-22.42725-58.87109c-5.03149,1.18164-47.22656,10.51855-61.35888-4.52832-4.84327-5.15723-5.78785-12.62891-2.80762-22.208L516.01767,557.22l.25634.01367c3.11841.16406,76.43531,4.27344,81.46119,26.38867,4.23754,18.64454,11.97656,53.40528,14.24731,63.61524a4.51573,4.51573,0,0,1-2.814,5.18359l-9.01929,3.38184a4.46228,4.46228,0,0,1-1.572.28613A4.51293,4.51293,0,0,1,594.36386,653.19171Z" transform="matrix(1, 0, 0, 1, -325, -205.75)" fill="#2f2e41"/>
  <path d="M581.36386,660.19171l-22.42725-58.87109c-5.03174,1.18164-47.22656,10.51757-61.35888-4.52832-4.84327-5.15723-5.78785-12.62891-2.80762-22.208L503.01767,564.22l.25634.01367c3.11841.16406,76.43531,4.27344,81.46119,26.38867,4.23754,18.64454,11.97656,53.40528,14.24731,63.61524a4.51573,4.51573,0,0,1-2.814,5.18359l-9.01929,3.38184a4.46228,4.46228,0,0,1-1.572.28613A4.51293,4.51293,0,0,1,581.36386,660.19171Z" transform="matrix(1, 0, 0, 1, -325, -205.75)" fill="#2f2e41"/>
  <path d="M561.19033,545.97389a19.19641,19.19641,0,0,1-16.4845-9.37159l-7.12256-12.06591,16.92933-9.25293,7.18835,9.856,48.77356-5.13867a10.56012,10.56012,0,0,1,.79919-1.23389h0a11.0157,11.0157,0,0,1,7.8733-4.314,10.89328,10.89328,0,0,1,8.49267,3.01221,11.02274,11.02274,0,0,1,1.85986,13.56347,11.00367,11.00367,0,0,1-16.1134,3.15088,10.39918,10.39918,0,0,1-.82287-.70019l-46.7146,11.91064A18.83682,18.83682,0,0,1,561.19033,545.97389Z" fill="#a0616a" transform="matrix(1, 0, 0, 1, -325, -205.75)"/>
  <path d="M494.453,577.69269a4.50692,4.50692,0,0,1-1.8186-4.34864c2.78247-18.34277-.41895-44.61914-3.59473-63.43261A24.79543,24.79543,0,0,1,516.599,481.14972a79.86445,79.86445,0,0,1,9.91284,1.9541h0a24.59626,24.59626,0,0,1,18.582,24.46777c-.47485,18.1543,3.21142,40.80567,4.81836,49.70117a4.51862,4.51862,0,0,1-.83374,3.51075,4.39229,4.39229,0,0,1-3.09546,1.75c-17.80811,1.81738-37.01221,10.50195-46.87451,15.5166a4.50061,4.50061,0,0,1-2.04956.501A4.42883,4.42883,0,0,1,494.453,577.69269Z" transform="matrix(1, 0, 0, 1, -325, -205.75)" fill="#a27b5c"/>
  <path d="M542.52377,530.38116a4.47083,4.47083,0,0,1-2.47363-2.39746l-9.9314-22.94238a11.49973,11.49973,0,1,1,21.10718-9.13574l9.93164,22.94238a4.5057,4.5057,0,0,1-2.342,5.917l-12.8479,5.56153a4.46857,4.46857,0,0,1-3.44385.05468Z" transform="matrix(1, 0, 0, 1, -325, -205.75)" fill="#a27b5c"/>
  <circle cx="189.77127" cy="243.03391" r="24.56103" fill="#a0616a"/>
  <path d="M499.92852,470.60459a3.97443,3.97443,0,0,1-5.69016.32691,44.42586,44.42586,0,0,1-12.67228-16.54878c-3.19306-7.611-3.661-16.899-.027-24.03305,3.072-6.03078,8.58662-9.86968,14.09195-13.00723a22.99349,22.99349,0,0,1,6.84781-2.89429,8.99361,8.99361,0,0,1,7.154,1.40678,7.54423,7.54423,0,0,1,2.878,7.22723,22.35408,22.35408,0,0,1,9.80208-7.35654,11.36522,11.36522,0,0,1,7.55375-.50594c3.53554,1.18009,6.15253,4.75026,7.60882,8.58606a19.14076,19.14076,0,0,1,1.25546,9.26373,11.12855,11.12855,0,0,1-4.2691,7.67142c-2.88387,1.98989-6.59927,1.78779-9.95313.90708s-6.60888-2.37392-10.02126-2.79024-7.19423.4863-9.22732,3.52991c-1.43176,2.14338-1.7693,4.96687-2.06144,7.65827l-1.51947,13.99864a18.54788,18.54788,0,0,1-1.27762,5.83956A3.25084,3.25084,0,0,1,499.92852,470.60459Z" transform="matrix(1, 0, 0, 1, -325, -205.75)" fill="#2f2e41"/>
  <path d="M552.431,571.61988a11.01884,11.01884,0,0,1-6.53393-6.15772,10.25849,10.25849,0,0,1-.35913-1.019l-52.322-14.89307a10.88006,10.88006,0,0,1-7.86109-10.34277l-.12768-20.20166,19.28588.51611,1.25684,12.13428,44.74072,20.08691a10.56863,10.56863,0,0,1,1.31153-.66455h.00024a11.01,11.01,0,1,1,.60864,20.54151Z" transform="matrix(1, 0, 0, 1, -325, -205.75)" fill="#a0616a"/>
  <path d="M485.52714,527.87432a4.47084,4.47084,0,0,1-1.11986-3.2577l1.534-24.9526a11.49972,11.49972,0,1,1,22.956,1.41236l-1.53376,24.95272a4.50569,4.50569,0,0,1-4.76751,4.21506l-13.97358-.85915a4.46863,4.46863,0,0,1-3.09531-1.51069Z" transform="matrix(1, 0, 0, 1, -325, -205.75)" fill="#a27b5c"/>
  <path d="M622.06783,540.25H607.93217a1.8178,1.8178,0,0,1-1.81577-1.64688l-2.82949-29.00177h23.42618l-2.82949,29.00141A1.81783,1.81783,0,0,1,622.06783,540.25Z" transform="matrix(1, 0, 0, 1, -325, -205.75)" fill="#a27b5c"/>
  <path d="M626.67568,513.25H603.32432A1.82647,1.82647,0,0,1,601.5,511.42568V507.0473a1.82647,1.82647,0,0,1,1.82432-1.82433h23.35136A1.82647,1.82647,0,0,1,628.5,507.0473v4.37838A1.82647,1.82647,0,0,1,626.67568,513.25Z" transform="matrix(1, 0, 0, 1, -325, -205.75)" fill="#3f3d56"/>
  <path d="M409.52655,514.25H381.01327a3.16815,3.16815,0,0,0-3.16814,3.16814v60.19469h4.75222V522.17035a3.16814,3.16814,0,0,1,3.16814-3.16814h20.59292a3.16815,3.16815,0,0,1,3.16814,3.16814v55.44248h4.75221V517.41814a3.16814,3.16814,0,0,0-3.16814-3.16814Z" transform="matrix(1, 0, 0, 1, -325, -205.75)" fill="#3f3d56"/>
  <path d="M428.5354,693.25h-68.115a13.47966,13.47966,0,0,1-13.4646-13.4646V579.98894a13.47966,13.47966,0,0,1,13.4646-13.4646H428.5354A13.47965,13.47965,0,0,1,442,579.98894V679.7854A13.47965,13.47965,0,0,1,428.5354,693.25Z" fill="#3f3d56" transform="matrix(1, 0, 0, 1, -325, -205.75)"/>
  <path d="M348.19679,649.57281c-4.63,0-7.12832-9.58951-7.12832-18.61284s2.49831-18.61283,7.12832-18.61283,7.12832,9.58951,7.12832,18.61283S352.82679,649.57281,348.19679,649.57281Zm0-35.6416c-2.62246,0-5.54425,6.99374-5.54425,17.02876s2.92179,17.02876,5.54425,17.02876S353.741,640.995,353.741,630.96,350.81925,613.93121,348.19679,613.93121Z" transform="matrix(1, 0, 0, 1, -325, -205.75)" fill="#3f3d56"/>
  <path d="M423.78319,633.84735H411.11062a3.96485,3.96485,0,0,1-3.96018-3.96018v-9.50443a3.96484,3.96484,0,0,1,3.96018-3.96017h12.67257a3.96483,3.96483,0,0,1,3.96017,3.96017v9.50443A3.96484,3.96484,0,0,1,423.78319,633.84735Z" transform="matrix(1, 0, 0, 1, -325, -205.75)" fill="#fff"/>
  <path d="M427.74336,686.53936H355.32511a1.58415,1.58415,0,0,1-1.58407-1.58407V574.44469a1.58414,1.58414,0,0,1,1.58407-1.58407h72.41825a1.58407,1.58407,0,1,1,0,3.16814H356.90918V683.37121h70.83418a1.58408,1.58408,0,0,1,0,3.16815Z" transform="matrix(1, 0, 0, 1, -325, -205.75)" fill="#fff"/>
  <path d="M809.73014,390.20586a9.43037,9.43037,0,0,0-3.17794-1.80652,21.29964,21.29964,0,0,0-8.07466-.87784,36.50949,36.50949,0,0,0-5.93465.827L701.3774,414.14q-2.58342.72549-5.07875,1.69041c-5.8763-2.2998-22.49062-8.95257-24.3115-11.33953l-7.14584,2.08948,11.91246,17.7819a1.63253,1.63253,0,0,0,.1231,3.03989c13.73393,4.71571,34.476-1.54536,34.476-1.54536L791.012,403.09789S815.0551,394.96511,809.73014,390.20586Z" transform="matrix(1, 0, 0, 1, -325, -205.75)" fill="#fff" style="isolation:isolate"/>
  <polygon points="439.558 198.716 387.784 212.696 384.725 218.814 439.558 198.716" fill="#f2f2f2"/>
  <path d="M874,694.25H326a1,1,0,0,1,0-2H874a1,1,0,0,1,0,2Z" transform="matrix(1, 0, 0, 1, -325, -205.75)" fill="#ccc"/>
  <path d="M763.5,293.25a14.9415,14.9415,0,0,0-10.95557,4.77753A10.98511,10.98511,0,0,0,737.5,308.25h41A15,15,0,0,0,763.5,293.25Z" transform="matrix(1, 0, 0, 1, -325, -205.75)" fill="#fff"/>
  <path d="M543.5,244.25a14.9415,14.9415,0,0,0-10.95557,4.77753A10.98511,10.98511,0,0,0,517.5,259.25h41A15,15,0,0,0,543.5,244.25Z" transform="matrix(1, 0, 0, 1, -325, -205.75)" fill="#fff"/>
  <path d="M475.5,375.25a14.9415,14.9415,0,0,0-10.95557,4.77753A10.98511,10.98511,0,0,0,449.5,390.25h41A15,15,0,0,0,475.5,375.25Z" transform="matrix(1, 0, 0, 1, -325, -205.75)" fill="#fff"/>
  <path d="M 160.824 83.315 L 160.824 72.053 L 189.061 27.568 L 198.77 27.568 L 198.77 43.156 L 193.024 43.156 L 175.223 71.327 L 175.223 71.855 L 215.349 71.855 L 215.349 83.315 Z M 193.288 95.204 L 193.288 79.88 L 193.552 74.893 L 193.552 27.568 L 206.961 27.568 L 206.961 95.204 Z" style="fill: rgb(124, 124, 124); paint-order: fill; white-space: pre;"/>
  <path d="M 380.384 224.002 L 380.384 212.74 L 408.621 168.255 L 418.33 168.255 L 418.33 183.843 L 412.584 183.843 L 394.783 212.014 L 394.783 212.542 L 434.909 212.542 L 434.909 224.002 Z M 412.848 235.891 L 412.848 220.567 L 413.112 215.58 L 413.112 168.255 L 426.521 168.255 L 426.521 235.891 Z" style="fill: rgb(124, 124, 124); paint-order: fill; white-space: pre;"/>
  <path d="M 407.716 96.351 Q 399.195 96.318 393.069 92.157 Q 386.943 87.996 383.657 80.103 Q 380.371 72.209 380.404 61.113 Q 380.404 50.049 383.69 42.255 Q 386.976 34.461 393.102 30.383 Q 399.228 26.304 407.716 26.304 Q 416.204 26.304 422.33 30.399 Q 428.456 34.494 431.759 42.272 Q 435.061 50.049 435.028 61.113 Q 435.028 72.242 431.742 80.136 Q 428.456 88.029 422.346 92.19 Q 416.237 96.351 407.716 96.351 Z M 407.716 84.495 Q 413.528 84.495 416.996 78.649 Q 420.464 72.804 420.431 61.113 Q 420.431 53.418 418.862 48.299 Q 417.293 43.18 414.437 40.604 Q 411.58 38.028 407.716 38.028 Q 401.936 38.028 398.469 43.807 Q 395.001 49.587 394.968 61.113 Q 394.968 68.907 396.537 74.108 Q 398.106 79.31 400.979 81.902 Q 403.852 84.495 407.716 84.495 Z" style="fill: rgb(124, 124, 124); paint-order: fill; white-space: pre;"/>
  <path d="M 286.892 315.974 C 286.892 315.974 286.401 320.705 292.296 320.991 C 292.296 320.991 291.365 321.654 289.158 321.766 C 286.95 321.878 284.676 320.786 284.101 316.144 L 286.892 315.974 Z" class="fill-fdbb03 fill-a27b5c" style="fill: rgb(176, 158, 143);"/>
  <path d="M 294.044 319.881 C 296.034 319.635 296.966 318.556 297.172 317.61 C 297.33 316.88 297.066 316.193 296.496 315.86 C 295.911 315.516 295.357 315.631 294.924 315.888 C 294.854 315.745 294.706 315.647 294.537 315.647 L 284.102 315.647 C 283.875 315.647 283.687 315.823 283.671 316.049 C 283.669 316.091 283.47 319.561 285.971 321.45 L 284.096 321.45 C 283.858 321.45 283.665 321.644 283.665 321.882 C 283.665 322.119 283.858 322.313 284.096 322.313 L 296.493 322.313 C 296.731 322.313 296.924 322.119 296.924 321.882 C 296.924 321.644 296.731 321.45 296.493 321.45 L 292.667 321.45 C 293.27 320.996 293.715 320.449 294.044 319.881 Z M 296.06 316.604 C 296.305 316.747 296.408 317.063 296.329 317.427 C 296.21 317.971 295.656 318.634 294.496 318.923 C 294.758 318.22 294.878 317.542 294.931 317.022 C 295.061 316.855 295.544 316.301 296.06 316.604 Z M 287.817 321.45 C 284.916 320.479 284.559 317.584 284.529 316.509 L 294.11 316.509 C 294.08 317.585 293.722 320.479 290.822 321.45 L 287.817 321.45 Z" fill="#222831" class="fill-352517 fill-3f4e4f" style=""/>
  <path d="M 282.454 323.553 Q 282.566 323.573 282.644 323.671 Q 282.722 323.769 282.722 323.893 Q 282.722 323.999 282.667 324.084 Q 282.612 324.169 282.508 324.218 Q 282.404 324.267 282.266 324.267 L 281.71 324.267 L 281.71 322.877 L 282.24 322.877 Q 282.382 322.877 282.484 322.925 Q 282.586 322.973 282.638 323.054 Q 282.69 323.135 282.69 323.235 Q 282.69 323.355 282.626 323.435 Q 282.562 323.515 282.454 323.553 Z M 281.938 323.461 L 282.22 323.461 Q 282.332 323.461 282.395 323.41 Q 282.458 323.359 282.458 323.263 Q 282.458 323.169 282.395 323.116 Q 282.332 323.063 282.22 323.063 L 281.938 323.063 Z M 282.246 324.081 Q 282.362 324.081 282.428 324.025 Q 282.494 323.969 282.494 323.869 Q 282.494 323.767 282.424 323.707 Q 282.354 323.647 282.238 323.647 L 281.938 323.647 L 281.938 324.081 L 282.246 324.081 Z" style="fill: rgb(242, 242, 242); white-space: pre;"/>
  <path d="M 283.958 323.165 L 283.958 324.267 L 283.73 324.267 L 283.73 324.137 Q 283.676 324.205 283.589 324.244 Q 283.502 324.283 283.404 324.283 Q 283.274 324.283 283.171 324.229 Q 283.068 324.175 283.009 324.069 Q 282.95 323.963 282.95 323.813 L 282.95 323.165 L 283.176 323.165 L 283.176 323.779 Q 283.176 323.927 283.25 324.006 Q 283.324 324.085 283.452 324.085 Q 283.58 324.085 283.655 324.006 Q 283.73 323.927 283.73 323.779 L 283.73 323.165 Z" style="fill: rgb(242, 242, 242); white-space: pre;"/>
  <path d="M 285.249 323.165 L 284.573 324.785 L 284.337 324.785 L 284.561 324.249 L 284.127 323.165 L 284.381 323.165 L 284.691 324.005 L 285.013 323.165 Z" style="fill: rgb(242, 242, 242); white-space: pre;"/>
  <path d="M 287.408 322.877 L 287.408 324.267 L 287.18 324.267 L 287.18 323.315 L 286.756 324.267 L 286.598 324.267 L 286.172 323.315 L 286.172 324.267 L 285.944 324.267 L 285.944 322.877 L 286.19 322.877 L 286.678 323.967 L 287.164 322.877 Z" style="fill: rgb(242, 242, 242); white-space: pre;"/>
  <path d="M 288.72 323.689 Q 288.72 323.751 288.712 323.801 L 287.87 323.801 Q 287.88 323.933 287.968 324.013 Q 288.056 324.093 288.184 324.093 Q 288.368 324.093 288.444 323.939 L 288.69 323.939 Q 288.64 324.091 288.509 324.188 Q 288.378 324.285 288.184 324.285 Q 288.026 324.285 287.901 324.214 Q 287.776 324.143 287.705 324.014 Q 287.634 323.885 287.634 323.715 Q 287.634 323.545 287.703 323.416 Q 287.772 323.287 287.897 323.217 Q 288.022 323.147 288.184 323.147 Q 288.34 323.147 288.462 323.215 Q 288.584 323.283 288.652 323.406 Q 288.72 323.529 288.72 323.689 Z M 288.482 323.617 Q 288.48 323.491 288.392 323.415 Q 288.304 323.339 288.174 323.339 Q 288.056 323.339 287.972 323.414 Q 287.888 323.489 287.872 323.617 Z" style="fill: rgb(242, 242, 242); white-space: pre;"/>
  <path d="M 290.298 323.983 L 289.716 323.983 L 289.616 324.267 L 289.378 324.267 L 289.876 322.875 L 290.14 322.875 L 290.638 324.267 L 290.398 324.267 Z M 290.234 323.797 L 290.008 323.151 L 289.78 323.797 Z" style="fill: rgb(242, 242, 242); white-space: pre;"/>
  <path d="M 291.407 323.147 Q 291.537 323.147 291.64 323.201 Q 291.743 323.255 291.801 323.361 Q 291.859 323.467 291.859 323.617 L 291.859 324.267 L 291.633 324.267 L 291.633 323.651 Q 291.633 323.503 291.559 323.424 Q 291.485 323.345 291.357 323.345 Q 291.229 323.345 291.154 323.424 Q 291.079 323.503 291.079 323.651 L 291.079 324.267 L 290.851 324.267 L 290.851 323.165 L 291.079 323.165 L 291.079 323.291 Q 291.135 323.223 291.222 323.185 Q 291.309 323.147 291.407 323.147 Z" style="fill: rgb(242, 242, 242); white-space: pre;"/>
  <path d="M 293.139 323.165 L 292.463 324.785 L 292.227 324.785 L 292.451 324.249 L 292.017 323.165 L 292.271 323.165 L 292.581 324.005 L 292.903 323.165 Z" style="fill: rgb(242, 242, 242); white-space: pre;"/>
  <path d="M 293.585 323.351 L 293.585 323.961 Q 293.585 324.023 293.614 324.05 Q 293.643 324.077 293.713 324.077 L 293.853 324.077 L 293.853 324.267 L 293.673 324.267 Q 293.519 324.267 293.437 324.195 Q 293.355 324.123 293.355 323.961 L 293.355 323.351 L 293.225 323.351 L 293.225 323.165 L 293.355 323.165 L 293.355 322.891 L 293.585 322.891 L 293.585 323.165 L 293.853 323.165 L 293.853 323.351 Z" style="fill: rgb(242, 242, 242); white-space: pre;"/>
  <path d="M 294.639 323.147 Q 294.765 323.147 294.864 323.201 Q 294.963 323.255 295.02 323.361 Q 295.077 323.467 295.077 323.617 L 295.077 324.267 L 294.851 324.267 L 294.851 323.651 Q 294.851 323.503 294.777 323.424 Q 294.703 323.345 294.575 323.345 Q 294.447 323.345 294.372 323.424 Q 294.297 323.503 294.297 323.651 L 294.297 324.267 L 294.069 324.267 L 294.069 322.787 L 294.297 322.787 L 294.297 323.293 Q 294.355 323.223 294.444 323.185 Q 294.533 323.147 294.639 323.147 Z" style="fill: rgb(242, 242, 242); white-space: pre;"/>
  <path d="M 295.482 323.019 Q 295.42 323.019 295.378 322.977 Q 295.336 322.935 295.336 322.873 Q 295.336 322.811 295.378 322.769 Q 295.42 322.727 295.482 322.727 Q 295.542 322.727 295.584 322.769 Q 295.626 322.811 295.626 322.873 Q 295.626 322.935 295.584 322.977 Q 295.542 323.019 295.482 323.019 Z M 295.594 323.165 L 295.594 324.267 L 295.366 324.267 L 295.366 323.165 Z" style="fill: rgb(242, 242, 242); white-space: pre;"/>
  <path d="M 296.438 323.147 Q 296.568 323.147 296.671 323.201 Q 296.774 323.255 296.832 323.361 Q 296.89 323.467 296.89 323.617 L 296.89 324.267 L 296.664 324.267 L 296.664 323.651 Q 296.664 323.503 296.59 323.424 Q 296.516 323.345 296.388 323.345 Q 296.26 323.345 296.185 323.424 Q 296.11 323.503 296.11 323.651 L 296.11 324.267 L 295.882 324.267 L 295.882 323.165 L 296.11 323.165 L 296.11 323.291 Q 296.166 323.223 296.253 323.185 Q 296.34 323.147 296.438 323.147 Z" style="fill: rgb(242, 242, 242); white-space: pre;"/>
  <path d="M 297.623 323.147 Q 297.751 323.147 297.85 323.198 Q 297.949 323.249 298.005 323.325 L 298.005 323.165 L 298.235 323.165 L 298.235 324.285 Q 298.235 324.437 298.171 324.556 Q 298.107 324.675 297.986 324.743 Q 297.865 324.811 297.697 324.811 Q 297.473 324.811 297.325 324.706 Q 297.177 324.601 297.157 324.421 L 297.383 324.421 Q 297.409 324.507 297.494 324.56 Q 297.579 324.613 297.697 324.613 Q 297.835 324.613 297.92 324.529 Q 298.005 324.445 298.005 324.285 L 298.005 324.101 Q 297.947 324.179 297.848 324.232 Q 297.749 324.285 297.623 324.285 Q 297.479 324.285 297.36 324.212 Q 297.241 324.139 297.172 324.008 Q 297.103 323.877 297.103 323.711 Q 297.103 323.545 297.172 323.417 Q 297.241 323.289 297.36 323.218 Q 297.479 323.147 297.623 323.147 Z M 298.005 323.715 Q 298.005 323.601 297.958 323.517 Q 297.911 323.433 297.835 323.389 Q 297.759 323.345 297.671 323.345 Q 297.583 323.345 297.507 323.388 Q 297.431 323.431 297.384 323.514 Q 297.337 323.597 297.337 323.711 Q 297.337 323.825 297.384 323.911 Q 297.431 323.997 297.508 324.042 Q 297.585 324.087 297.671 324.087 Q 297.759 324.087 297.835 324.043 Q 297.911 323.999 297.958 323.914 Q 298.005 323.829 298.005 323.715 Z" style="fill: rgb(242, 242, 242); white-space: pre;"/>
</svg>