<svg width="222" height="109" viewBox="0 0 222 109" fill="none" xmlns="http://www.w3.org/2000/svg">
    <g clip-path="url(#clip0_6_170)">
        <path
            d="M52.7524 5.38539C52.7524 5.38539 44.7335 82.7091 141.102 87.3912C141.102 87.3912 125.879 98.2232 89.788 100.061C53.6974 101.898 16.5279 84.0504 7.12604 8.1428L52.7524 5.38539Z"
            fill="#A27B5C" />
        <path
            d="M169.678 69.2432C202.208 65.2147 217.449 47.5742 220.808 32.1218C223.402 20.1863 219.071 8.94997 209.771 3.49786C200.195 -2.11376 191.143 -0.235698 184.06 3.96286C182.905 1.6218 180.499 0.0241414 177.737 0.0241414H7.14257C3.43459 0.0241414 0.359661 2.89742 0.106845 6.59687C0.0622009 7.27155 -3.19682 64.0233 37.7083 94.8975H7.05127C3.1572 94.8975 0 98.0547 0 101.949C0 105.843 3.1572 109 7.05127 109H209.706C213.6 109 216.757 105.843 216.757 101.949C216.757 98.0547 213.6 94.8975 209.706 94.8975H147.172C157.021 87.464 164.291 78.5327 169.678 69.2432ZM202.637 15.6641C206.64 18.0107 208.322 23.1684 207.027 29.1266C205.094 38.0198 196.035 48.8553 177.056 53.5861C181.344 42.0794 183.306 31.0102 184.18 22.5022C186.293 19.7719 194.197 10.7132 202.637 15.6641ZM67.8797 94.8975C20.4551 79.0162 14.6122 31.6984 14.1166 14.1267H170.761C170.267 31.707 164.421 79.0177 117.002 94.897H67.8797V94.8975Z"
            fill="black" />
    </g>
    <defs>
        <clipPath id="clip0_6_170">
            <rect width="221.55" height="109" fill="white" />
        </clipPath>
    </defs>
</svg>
