<svg width="48" height="48" viewBox="0 0 48 48" fill="none" xmlns="http://www.w3.org/2000/svg">
    <path
        d="M39.4312 6.73124L4.48124 16.575C4.18373 16.6563 3.91853 16.8274 3.72175 17.0649C3.52498 17.3024 3.40621 17.5948 3.38161 17.9023C3.35701 18.2097 3.42779 18.5173 3.5843 18.783C3.74081 19.0488 3.97545 19.2599 4.25625 19.3875L20.3062 26.9812C20.6206 27.1268 20.8731 27.3793 21.0187 27.6937L28.6125 43.7437C28.7401 44.0245 28.9512 44.2592 29.2169 44.4157C29.4827 44.5722 29.7903 44.643 30.0977 44.6184C30.4052 44.5938 30.6976 44.475 30.9351 44.2782C31.1726 44.0815 31.3437 43.8162 31.425 43.5187L41.2687 8.56874C41.3433 8.31369 41.348 8.04328 41.2821 7.78584C41.2162 7.52841 41.0824 7.29342 40.8945 7.10552C40.7066 6.91763 40.4716 6.78373 40.2141 6.71788C39.9567 6.65203 39.6863 6.65664 39.4312 6.73124V6.73124Z"
        stroke="#E1E1E6" stroke-width="3" stroke-linecap="round" stroke-linejoin="round" />
    <path d="M20.7937 27.2062L29.2687 18.7312" stroke="#E1E1E6" stroke-width="3" stroke-linecap="round"
        stroke-linejoin="round" />
</svg>
